# xmcd
#
# Track frame offsets:
#   150
#   16430
#   32797
#   48535
#   63825
#   78775
#   91297
#   107940
#   124202
#   143162
#   158430
#   176737
#
# Disc length: 2547 seconds
#
# Revision: 0
# Processed by: cddbd v1.5.1PL0 Copyright (c) Steve Scherf et al.
# Submitted via: uFREEDB ActiveX Control 1.5
#
DISCID=9709f10c
DTITLE=Segredo Sensual - Segredo Sensual
DYEAR=2003
DGENRE=Pagode
TTITLE0=Apaixonado pela sua amiga
TTITLE1=Amor de Infância
TTITLE2=Até quando Deus Quiser
TTITLE3=Chega
TTITLE4=Medo de se dar
TTITLE5=To amando você
TTITLE6=A vida não presta
TTITLE7=Clarea
TTITLE8=Uma História de Amor
TTITLE9=Vem cá
TTITLE10=Temporal
TTITLE11=Dentadas de Amor
EXTD=
EXTT0=
EXTT1=
EXTT2=
EXTT3=
EXTT4=
EXTT5=
EXTT6=
EXTT7=
EXTT8=
EXTT9=
EXTT10=
EXTT11=
PLAYORDER=
